<svg width="281" height="278" viewBox="0 0 281 278" fill="none" xmlns="http://www.w3.org/2000/svg">
<path d="M185.499 0H190.982C218.377 0.317279 249.625 5.73218 264.953 31.7702C280.259 57.766 281 94.5703 281 124.331L279.137 220.509C278.565 250.206 254.304 273.981 224.559 273.981C195.089 273.981 173.791 245.807 181.836 217.484L212.555 109.44C213.317 106.733 211.814 103.92 209.168 103.031C206.331 102.1 203.303 103.708 202.478 106.564C198.349 121.053 186.726 162.024 180.375 184.191C168.266 226.41 163.142 277.979 94.6123 277.979C33.8733 278 1.29142 248.535 0 167.037V166.952L1.69366 83.5502L1.84186 76.4643C2.64635 36.2121 35.5458 4.01887 75.855 4.01887C94.8028 4.01887 108.352 22.3576 102.742 40.4637L75.4951 128.392C74.6906 130.994 76.0879 133.786 78.6707 134.674C81.4017 135.626 84.3656 134.103 85.1913 131.354L102.467 73.7568C112.396 38.3485 126.559 1.26912 182.704 0.0634558C183.636 0.0423039 184.567 0.0211519 185.499 0Z" fill="#8A181A"/>
</svg>
