<svg width="435" height="44" viewBox="0 0 435 44" fill="none" xmlns="http://www.w3.org/2000/svg">
<g clip-path="url(#clip0_21_579)">
<path d="M14.8766 43.6537C11.824 43.6537 8.93506 43.1213 6.22304 42.0502C3.50446 40.9854 1.43442 39.6321 0.00634766 38.0029L1.08068 36.6047C2.43014 38.0799 4.34296 39.3306 6.81916 40.3633C9.29535 41.3959 11.9681 41.9091 14.8242 41.9091C17.6804 41.9091 20.0976 41.5242 21.9646 40.7417C23.8315 39.9656 25.2072 38.9266 26.0981 37.6245C26.989 36.3225 27.4345 34.8793 27.4345 33.2822C27.4345 31.4158 26.9563 29.9213 26.0064 28.7989C25.0565 27.6764 23.7922 26.7785 22.2266 26.1178C20.661 25.4572 18.9512 24.912 17.1104 24.4887C15.2631 24.0589 13.4027 23.6035 11.5161 23.1161C9.62944 22.6286 7.90659 22.0129 6.34095 21.2496C4.77532 20.4927 3.52412 19.4473 2.59391 18.1067C1.6637 16.7662 1.19204 15.028 1.19204 12.8922C1.19204 11.0642 1.6899 9.35804 2.67907 7.76737C3.66823 6.1767 5.21422 4.88108 7.32357 3.89332C9.42637 2.90557 12.1187 2.40527 15.4138 2.40527C17.6738 2.40527 19.9076 2.74522 22.1087 3.4251C24.3097 4.10498 26.1833 5.00936 27.7293 6.1318L26.8383 7.70323C25.1744 6.4974 23.3271 5.60586 21.3029 5.02218C19.2787 4.43851 17.3332 4.14988 15.4727 4.14988C12.6952 4.14988 10.3828 4.54755 8.54201 5.34288C6.70125 6.13822 5.33868 7.19653 4.46743 8.51781C3.59618 9.83909 3.15727 11.2951 3.15727 12.8857C3.15727 14.7907 3.63548 16.3044 4.58534 17.4333C5.53521 18.5621 6.79951 19.4537 8.36514 20.1143C9.93078 20.775 11.6471 21.3201 13.5141 21.7435C15.381 22.1732 17.2415 22.6286 19.1084 23.1096C20.9688 23.5971 22.6852 24.2257 24.2573 25.0018C25.823 25.7779 27.0742 26.8169 28.0044 28.119C28.9346 29.421 29.3997 31.1207 29.3997 33.2181C29.3997 35.0461 28.8953 36.7522 27.8799 38.3429C26.8711 39.9336 25.2793 41.2164 23.1175 42.1913C20.9557 43.1598 18.211 43.6473 14.8766 43.6473V43.6537Z" fill="#8A181A"/>
<path d="M57.5355 43.6537C54.4828 43.6537 51.6463 43.1406 49.026 42.108C46.4057 41.0817 44.126 39.6322 42.187 37.7657C40.2414 35.8992 38.7347 33.7185 37.667 31.2106C36.5992 28.7027 36.062 25.9768 36.062 23.0263C36.062 20.0759 36.5992 17.3435 37.667 14.8421C38.7413 12.3342 40.248 10.1534 42.187 8.28697C44.1326 6.4205 46.4122 4.97735 49.026 3.9447C51.6463 2.91846 54.5025 2.39893 57.5944 2.39893C60.6864 2.39893 63.4836 2.91205 66.1039 3.9447C68.7242 4.97735 70.9908 6.4205 72.9167 8.28697C74.8426 10.1534 76.3493 12.3278 77.4367 14.81C78.5242 17.2922 79.0744 20.031 79.0744 23.0263C79.0744 26.0217 78.5307 28.7091 77.4367 31.2106C76.3428 33.7185 74.8361 35.8992 72.9167 37.7657C70.9908 39.6322 68.7242 41.0753 66.1039 42.108C63.4836 43.1406 60.6274 43.6537 57.5355 43.6537ZM57.5355 41.8514C60.313 41.8514 62.8875 41.3832 65.2719 40.4532C67.6499 39.5231 69.7265 38.2018 71.4886 36.4893C73.2508 34.7832 74.6199 32.7884 75.596 30.5179C76.5655 28.2473 77.0568 25.7523 77.0568 23.0327C77.0568 20.3132 76.572 17.8182 75.596 15.5476C74.6265 13.2771 73.2573 11.2823 71.4886 9.57619C69.7265 7.87006 67.6499 6.54878 65.2719 5.61234C62.894 4.68231 60.313 4.21409 57.5355 4.21409C54.7579 4.21409 52.2424 4.68231 49.858 5.61234C47.48 6.54237 45.4034 7.86365 43.6413 9.57619C41.8791 11.2887 40.51 13.2835 39.5339 15.5733C38.5579 17.8631 38.0731 20.3517 38.0731 23.0327C38.0731 25.7138 38.5579 28.2473 39.5339 30.5179C40.5034 32.7884 41.8726 34.7832 43.6413 36.4893C45.4034 38.2018 47.48 39.5167 49.858 40.4532C52.2359 41.3832 54.7972 41.8514 57.5355 41.8514Z" fill="#8A181A"/>
<path d="M90.0798 43.4228V2.64258H91.7437L111.376 36.021H110.485L130 2.64258H131.664L131.723 43.4228H129.758L129.699 5.55453H130.354L111.435 37.772H110.361L91.3244 5.55453H92.0385V43.4228H90.0732H90.0798Z" fill="#8A181A"/>
<path d="M139.761 43.4228L159.033 2.64258H160.999L180.278 43.4228H178.076L159.571 3.9831H160.461L141.955 43.4228H139.754H139.761ZM146.423 31.4799L147.196 29.793H172.659L173.432 31.4799H146.423Z" fill="#8A181A"/>
<path d="M253.679 43.4228L235.474 2.64258H243.866L260.112 39.5166H255.231L271.772 2.64258H279.45L261.304 43.4228H253.685H253.679Z" fill="#8A181A"/>
<path d="M276.764 43.4228L295.505 2.64258H303.117L321.918 43.4228H313.769L297.707 6.66415H300.798L284.677 43.4228H276.764ZM285.391 33.9878L287.533 28.0484H309.963L312.046 33.9878H285.391Z" fill="#8A181A"/>
<path d="M344.119 44C338.446 44 333.992 42.4286 330.762 39.2793C327.526 36.1365 325.915 31.5697 325.915 25.5919V2.64258H333.651V25.361C333.651 29.5557 334.575 32.6023 336.415 34.5073C338.256 36.4123 340.87 37.3615 344.237 37.3615C347.604 37.3615 350.205 36.4123 352.033 34.5073C353.86 32.6023 354.771 29.5557 354.771 25.361V2.64258H362.383V25.5919C362.383 31.5761 360.765 36.1365 357.535 39.2793C354.299 42.4286 349.831 44 344.119 44Z" fill="#8A181A"/>
<path d="M373.27 43.4228V2.64258H381.006V37.0152H402.781V43.4228H373.27Z" fill="#8A181A"/>
<path d="M412.601 43.4228V9.05016H398.798V2.64258H434.14V9.05016H420.337V43.4228H412.601Z" fill="#8A181A"/>
<path d="M215.573 0H216.458C220.86 0.051312 225.884 0.904373 228.347 5.00933C230.81 9.10787 230.928 14.9061 230.928 19.5948L230.627 34.7446C230.535 39.4268 226.631 43.1726 221.856 43.1726C217.119 43.1726 213.693 38.7341 214.99 34.27L219.93 17.2472C220.054 16.8239 219.812 16.3749 219.386 16.2402C218.934 16.0927 218.443 16.3429 218.312 16.7983C217.65 19.0816 215.783 25.5341 214.761 29.0297C212.815 35.681 211.99 43.8076 200.972 43.8076C191.204 43.8076 185.97 39.1703 185.761 26.3294V26.3166L186.029 13.1743L186.056 12.0583C186.187 5.71487 191.48 0.641399 197.958 0.641399C201.004 0.641399 203.179 3.53411 202.282 6.38192L197.899 20.2362C197.768 20.6466 197.998 21.0828 198.41 21.2239C198.849 21.3714 199.327 21.1341 199.458 20.698L202.236 11.6222C203.821 6.04198 206.094 0.198834 215.121 0.00641399C215.272 0.00641399 215.423 0 215.573 0Z" fill="#8A181A"/>
</g>
<defs>
<clipPath id="clip0_21_579">
<rect width="434.133" height="44" fill="white"/>
</clipPath>
</defs>
</svg>
